{
	"asset":{
		"generator":"Khronos glTF Blender I/O v4.0.44",
		"version":"2.0"
	},
	"scene":0,
	"scenes":[
		{
			"name":"Scene",
			"nodes":[
				0
			]
		}
	],
	"nodes":[
		{
			"mesh":0,
			"name":"Object_2",
			"rotation":[
				-0.70710688829422,
				0,
				0,
				0.7071066498756409
			]
		}
	],
	"materials":[
		{
			"doubleSided":true,
			"name":"Scene_-_Root",
			"pbrMetallicRoughness":{
				"baseColorFactor":[
					0.5,
					0.5,
					0.5,
					1
				],
				"metallicFactor":0,
				"roughnessFactor":0.6000000238418579
			}
		}
	],
	"meshes":[
		{
			"name":"Object_0",
			"primitives":[
				{
					"attributes":{
						"COLOR_0":0,
						"POSITION":1,
						"NORMAL":2,
						"TEXCOORD_0":3
					},
					"indices":4,
					"material":0
				}
			]
		}
	],
	"accessors":[
		{
			"bufferView":0,
			"componentType":5123,
			"count":11700,
			"normalized":true,
			"type":"VEC4"
		},
		{
			"bufferView":1,
			"componentType":5126,
			"count":11700,
			"max":[
				19,
				10,
				43
			],
			"min":[
				-13,
				-9,
				0
			],
			"type":"VEC3"
		},
		{
			"bufferView":2,
			"componentType":5126,
			"count":11700,
			"type":"VEC3"
		},
		{
			"bufferView":3,
			"componentType":5126,
			"count":11700,
			"type":"VEC2"
		},
		{
			"bufferView":4,
			"componentType":5123,
			"count":35526,
			"type":"SCALAR"
		}
	],
	"bufferViews":[
		{
			"buffer":0,
			"byteLength":93600,
			"byteOffset":0,
			"target":34962
		},
		{
			"buffer":0,
			"byteLength":140400,
			"byteOffset":93600,
			"target":34962
		},
		{
			"buffer":0,
			"byteLength":140400,
			"byteOffset":234000,
			"target":34962
		},
		{
			"buffer":0,
			"byteLength":93600,
			"byteOffset":374400,
			"target":34962
		},
		{
			"buffer":0,
			"byteLength":71052,
			"byteOffset":468000,
			"target":34963
		}
	],
	"buffers":[
		{
			"byteLength":539052,
			"uri":"sculpture.bin"
		}
	]
}
